<?xml version="1.0" encoding="UTF-8" standalone="no"?>
<!-- Created with Inkscape (http://www.inkscape.org/) -->

<svg
   xmlns:dc="http://purl.org/dc/elements/1.1/"
   xmlns:cc="http://creativecommons.org/ns#"
   xmlns:rdf="http://www.w3.org/1999/02/22-rdf-syntax-ns#"
   xmlns:svg="http://www.w3.org/2000/svg"
   xmlns="http://www.w3.org/2000/svg"
   xmlns:sodipodi="http://sodipodi.sourceforge.net/DTD/sodipodi-0.dtd"
   xmlns:inkscape="http://www.inkscape.org/namespaces/inkscape"
   width="30"
   height="30"
   id="svg3316"
   version="1.1"
   inkscape:version="0.48.4 r9939"
   sodipodi:docname="BatchingEventInterval.svg">
  <defs
     id="defs3318" />
  <sodipodi:namedview
     id="base"
     pagecolor="#ffffff"
     bordercolor="#666666"
     borderopacity="1.0"
     inkscape:pageopacity="0.0"
     inkscape:pageshadow="2"
     inkscape:zoom="15.839192"
     inkscape:cx="5.988406"
     inkscape:cy="9.5566028"
     inkscape:document-units="px"
     inkscape:current-layer="layer1"
     showgrid="false"
     fit-margin-top="0"
     fit-margin-left="0"
     fit-margin-right="0"
     fit-margin-bottom="0"
     inkscape:window-width="1920"
     inkscape:window-height="1003"
     inkscape:window-x="-9"
     inkscape:window-y="-9"
     inkscape:window-maximized="1" />
  <metadata
     id="metadata3321">
    <rdf:RDF>
      <cc:Work
         rdf:about="">
        <dc:format>image/svg+xml</dc:format>
        <dc:type
           rdf:resource="http://purl.org/dc/dcmitype/StillImage" />
        <dc:title />
        <dc:creator>
          <cc:Agent>
            <dc:title>Daniel González</dc:title>
          </cc:Agent>
        </dc:creator>
        <dc:rights>
          <cc:Agent>
            <dc:title>Daniel González</dc:title>
          </cc:Agent>
        </dc:rights>
        <dc:publisher>
          <cc:Agent>
            <dc:title>Daniel González</dc:title>
          </cc:Agent>
        </dc:publisher>
      </cc:Work>
    </rdf:RDF>
  </metadata>
  <g
     inkscape:label="Layer 1"
     inkscape:groupmode="layer"
     id="layer1"
     transform="translate(-794.27446,-490.94484)">
    <g
       id="g6682-7-6"
       transform="matrix(0.1779661,0,0,0.1779661,763.89311,400.90581)">
      <rect
         y="505.93362"
         x="170.71428"
         height="168.57143"
         width="168.57143"
         id="rect6239-7-2-6-6-1-6-7-0"
         style="fill:#266e9f;fill-opacity:1;stroke:none" />
      <rect
         y="523.79077"
         x="188.57143"
         height="132.85715"
         width="132.85715"
         id="rect6239-7-2-6-6-1-4-0-3-3"
         style="fill:#ffffff;fill-opacity:1;stroke:none" />
    </g>
    <g
       id="g3915"
       transform="translate(-0.04484639,-0.02966911)">
      <g
         transform="translate(0,0.13369434)"
         id="g3906">
        <rect
           style="fill:#f9f9f9;fill-opacity:1;stroke:#000000;stroke-width:1.1450721;stroke-linejoin:round;stroke-miterlimit:4;stroke-opacity:1;stroke-dasharray:none"
           id="rect3356-1-5"
           width="7.8133636"
           height="18.386288"
           x="799.62305"
           y="496.64767" />
        <g
           id="g5567-8-7"
           transform="matrix(0.11166996,0,0,0.11166996,882.09092,338.65061)">
          <path
             inkscape:export-ydpi="89.999832"
             inkscape:export-xdpi="89.999832"
             inkscape:export-filename="C:\Users\daninux\Iconos Boubeta\followed by 16x16 px.png"
             d="m 401.03056,478.59555 c 0,37.37875 -30.30146,67.68022 -67.68022,67.68022 -37.37875,0 -67.68022,-30.30147 -67.68022,-67.68022 0,-37.37875 30.30147,-67.68022 67.68022,-67.68022 37.37876,0 67.68022,30.30147 67.68022,67.68022 z"
             sodipodi:ry="67.680222"
             sodipodi:rx="67.680222"
             sodipodi:cy="478.59555"
             sodipodi:cx="333.35034"
             id="path2985-9-17-4-2-1-6-3-4-5"
             style="fill:#266e9f;fill-opacity:1;fill-rule:evenodd;stroke:none"
             sodipodi:type="arc"
             transform="matrix(0.31150424,0,0,0.31150424,-808.48292,1315.0634)" />
          <path
             inkscape:export-ydpi="89.999832"
             inkscape:export-xdpi="89.999832"
             inkscape:export-filename="C:\Users\daninux\Iconos Boubeta\followed by 16x16 px.png"
             d="m 401.03056,478.59555 c 0,37.37875 -30.30146,67.68022 -67.68022,67.68022 -37.37875,0 -67.68022,-30.30147 -67.68022,-67.68022 0,-37.37875 30.30147,-67.68022 67.68022,-67.68022 37.37876,0 67.68022,30.30147 67.68022,67.68022 z"
             sodipodi:ry="67.680222"
             sodipodi:rx="67.680222"
             sodipodi:cy="478.59555"
             sodipodi:cx="333.35034"
             id="path2985-9-17-4-0-4-1-1-2-96-4"
             style="fill:#ffffff;fill-opacity:1;fill-rule:evenodd;stroke:none"
             sodipodi:type="arc"
             transform="matrix(0.16549909,0,0,0.16549909,-759.81205,1384.9408)" />
        </g>
        <g
           id="g5567-8-7-7"
           transform="matrix(0.11166996,0,0,0.11166996,882.11641,346.20555)">
          <path
             inkscape:export-ydpi="89.999832"
             inkscape:export-xdpi="89.999832"
             inkscape:export-filename="C:\Users\daninux\Iconos Boubeta\followed by 16x16 px.png"
             d="m 401.03056,478.59555 c 0,37.37875 -30.30146,67.68022 -67.68022,67.68022 -37.37875,0 -67.68022,-30.30147 -67.68022,-67.68022 0,-37.37875 30.30147,-67.68022 67.68022,-67.68022 37.37876,0 67.68022,30.30147 67.68022,67.68022 z"
             sodipodi:ry="67.680222"
             sodipodi:rx="67.680222"
             sodipodi:cy="478.59555"
             sodipodi:cx="333.35034"
             id="path2985-9-17-4-2-1-6-3-4-5-4"
             style="fill:#266e9f;fill-opacity:1;fill-rule:evenodd;stroke:none"
             sodipodi:type="arc"
             transform="matrix(0.31150424,0,0,0.31150424,-808.48292,1315.0634)" />
          <path
             inkscape:export-ydpi="89.999832"
             inkscape:export-xdpi="89.999832"
             inkscape:export-filename="C:\Users\daninux\Iconos Boubeta\followed by 16x16 px.png"
             d="m 401.03056,478.59555 c 0,37.37875 -30.30146,67.68022 -67.68022,67.68022 -37.37875,0 -67.68022,-30.30147 -67.68022,-67.68022 0,-37.37875 30.30147,-67.68022 67.68022,-67.68022 37.37876,0 67.68022,30.30147 67.68022,67.68022 z"
             sodipodi:ry="67.680222"
             sodipodi:rx="67.680222"
             sodipodi:cy="478.59555"
             sodipodi:cx="333.35034"
             id="path2985-9-17-4-0-4-1-1-2-96-4-0"
             style="fill:#ffffff;fill-opacity:1;fill-rule:evenodd;stroke:none"
             sodipodi:type="arc"
             transform="matrix(0.16549909,0,0,0.16549909,-759.81205,1384.9408)" />
        </g>
      </g>
      <g
         transform="translate(-0.31567267,-0.07055981)"
         id="g3897">
        <rect
           style="fill:#f9f9f9;fill-opacity:1;stroke:#000000;stroke-width:1.1450721;stroke-linejoin:round;stroke-miterlimit:4;stroke-opacity:1;stroke-dasharray:none"
           id="rect3356-1-5-4"
           width="7.8133636"
           height="18.386288"
           x="811.51788"
           y="496.85193" />
        <g
           id="g5567-8-7-8"
           transform="matrix(0.11166996,0,0,0.11166996,893.98573,338.85489)">
          <path
             inkscape:export-ydpi="89.999832"
             inkscape:export-xdpi="89.999832"
             inkscape:export-filename="C:\Users\daninux\Iconos Boubeta\followed by 16x16 px.png"
             d="m 401.03056,478.59555 c 0,37.37875 -30.30146,67.68022 -67.68022,67.68022 -37.37875,0 -67.68022,-30.30147 -67.68022,-67.68022 0,-37.37875 30.30147,-67.68022 67.68022,-67.68022 37.37876,0 67.68022,30.30147 67.68022,67.68022 z"
             sodipodi:ry="67.680222"
             sodipodi:rx="67.680222"
             sodipodi:cy="478.59555"
             sodipodi:cx="333.35034"
             id="path2985-9-17-4-2-1-6-3-4-5-8"
             style="fill:#266e9f;fill-opacity:1;fill-rule:evenodd;stroke:none"
             sodipodi:type="arc"
             transform="matrix(0.31150424,0,0,0.31150424,-808.48292,1315.0634)" />
          <path
             inkscape:export-ydpi="89.999832"
             inkscape:export-xdpi="89.999832"
             inkscape:export-filename="C:\Users\daninux\Iconos Boubeta\followed by 16x16 px.png"
             d="m 401.03056,478.59555 c 0,37.37875 -30.30146,67.68022 -67.68022,67.68022 -37.37875,0 -67.68022,-30.30147 -67.68022,-67.68022 0,-37.37875 30.30147,-67.68022 67.68022,-67.68022 37.37876,0 67.68022,30.30147 67.68022,67.68022 z"
             sodipodi:ry="67.680222"
             sodipodi:rx="67.680222"
             sodipodi:cy="478.59555"
             sodipodi:cx="333.35034"
             id="path2985-9-17-4-0-4-1-1-2-96-4-2"
             style="fill:#ffffff;fill-opacity:1;fill-rule:evenodd;stroke:none"
             sodipodi:type="arc"
             transform="matrix(0.16549909,0,0,0.16549909,-759.81205,1384.9408)" />
        </g>
        <g
           id="g5567-8-7-7-4"
           transform="matrix(0.11166996,0,0,0.11166996,894.01122,346.40983)">
          <path
             inkscape:export-ydpi="89.999832"
             inkscape:export-xdpi="89.999832"
             inkscape:export-filename="C:\Users\daninux\Iconos Boubeta\followed by 16x16 px.png"
             d="m 401.03056,478.59555 c 0,37.37875 -30.30146,67.68022 -67.68022,67.68022 -37.37875,0 -67.68022,-30.30147 -67.68022,-67.68022 0,-37.37875 30.30147,-67.68022 67.68022,-67.68022 37.37876,0 67.68022,30.30147 67.68022,67.68022 z"
             sodipodi:ry="67.680222"
             sodipodi:rx="67.680222"
             sodipodi:cy="478.59555"
             sodipodi:cx="333.35034"
             id="path2985-9-17-4-2-1-6-3-4-5-4-5"
             style="fill:#266e9f;fill-opacity:1;fill-rule:evenodd;stroke:none"
             sodipodi:type="arc"
             transform="matrix(0.31150424,0,0,0.31150424,-808.48292,1315.0634)" />
          <path
             inkscape:export-ydpi="89.999832"
             inkscape:export-xdpi="89.999832"
             inkscape:export-filename="C:\Users\daninux\Iconos Boubeta\followed by 16x16 px.png"
             d="m 401.03056,478.59555 c 0,37.37875 -30.30146,67.68022 -67.68022,67.68022 -37.37875,0 -67.68022,-30.30147 -67.68022,-67.68022 0,-37.37875 30.30147,-67.68022 67.68022,-67.68022 37.37876,0 67.68022,30.30147 67.68022,67.68022 z"
             sodipodi:ry="67.680222"
             sodipodi:rx="67.680222"
             sodipodi:cy="478.59555"
             sodipodi:cx="333.35034"
             id="path2985-9-17-4-0-4-1-1-2-96-4-0-5"
             style="fill:#ffffff;fill-opacity:1;fill-rule:evenodd;stroke:none"
             sodipodi:type="arc"
             transform="matrix(0.16549909,0,0,0.16549909,-759.81205,1384.9408)" />
        </g>
      </g>
    </g>
  </g>
</svg>
