<?xml version="1.0" encoding="UTF-8" standalone="no"?>
<!-- Created with Inkscape (http://www.inkscape.org/) -->

<svg
   xmlns:dc="http://purl.org/dc/elements/1.1/"
   xmlns:cc="http://creativecommons.org/ns#"
   xmlns:rdf="http://www.w3.org/1999/02/22-rdf-syntax-ns#"
   xmlns:svg="http://www.w3.org/2000/svg"
   xmlns="http://www.w3.org/2000/svg"
   xmlns:sodipodi="http://sodipodi.sourceforge.net/DTD/sodipodi-0.dtd"
   xmlns:inkscape="http://www.inkscape.org/namespaces/inkscape"
   width="30"
   height="30"
   id="svg3316"
   version="1.1"
   inkscape:version="0.48.4 r9939"
   sodipodi:docname="Every.svg">
  <defs
     id="defs3318" />
  <sodipodi:namedview
     id="base"
     pagecolor="#ffffff"
     bordercolor="#666666"
     borderopacity="1.0"
     inkscape:pageopacity="0.0"
     inkscape:pageshadow="2"
     inkscape:zoom="0.35"
     inkscape:cx="-167.84587"
     inkscape:cy="-74.274457"
     inkscape:document-units="px"
     inkscape:current-layer="layer1"
     showgrid="false"
     fit-margin-top="0"
     fit-margin-left="0"
     fit-margin-right="0"
     fit-margin-bottom="0"
     inkscape:window-width="1920"
     inkscape:window-height="1003"
     inkscape:window-x="-9"
     inkscape:window-y="-9"
     inkscape:window-maximized="1" />
  <metadata
     id="metadata3321">
    <rdf:RDF>
      <cc:Work
         rdf:about="">
        <dc:format>image/svg+xml</dc:format>
        <dc:type
           rdf:resource="http://purl.org/dc/dcmitype/StillImage" />
        <dc:title />
      </cc:Work>
    </rdf:RDF>
  </metadata>
  <g
     inkscape:label="Layer 1"
     inkscape:groupmode="layer"
     id="layer1"
     transform="translate(-542.84587,-428.08773)">
    <g
       id="g3351"
       transform="matrix(0.16933332,0,0,0.16933332,450.92398,380.51821)">
      <g
         transform="translate(1267.1429,-268.92857)"
         id="g6507">
        <path
           transform="matrix(1.3088415,0,0,1.3088415,-1072.0171,12.02789)"
           sodipodi:type="arc"
           style="fill:#266e9f;fill-opacity:1;fill-rule:evenodd;stroke:none"
           id="path2985-9-1-1"
           sodipodi:cx="333.35034"
           sodipodi:cy="478.59555"
           sodipodi:rx="67.680222"
           sodipodi:ry="67.680222"
           d="m 401.03056,478.59555 c 0,37.37875 -30.30146,67.68022 -67.68022,67.68022 -37.37875,0 -67.68022,-30.30147 -67.68022,-67.68022 0,-37.37875 30.30147,-67.68022 67.68022,-67.68022 37.37876,0 67.68022,30.30147 67.68022,67.68022 z"
           inkscape:export-filename="C:\Users\daninux\Iconos Boubeta\maximo 16x16 px.png"
           inkscape:export-xdpi="150.27"
           inkscape:export-ydpi="150.27" />
        <path
           sodipodi:type="arc"
           style="fill:#ffffff;fill-opacity:1;stroke:none"
           id="path4599"
           sodipodi:cx="-1102.1428"
           sodipodi:cy="187.36218"
           sodipodi:rx="20.714285"
           sodipodi:ry="20.714285"
           d="m -1081.4285,187.36218 c 0,11.44019 -9.2741,20.71429 -20.7143,20.71429 -11.4402,0 -20.7143,-9.2741 -20.7143,-20.71429 0,-11.44018 9.2741,-20.71428 20.7143,-20.71428 11.4402,0 20.7143,9.2741 20.7143,20.71428 z"
           transform="matrix(0.63793102,0,0,0.63793102,25.809926,476.02571)" />
        <path
           sodipodi:type="arc"
           style="fill:#ffffff;fill-opacity:1;stroke:none"
           id="path4599-9"
           sodipodi:cx="-1102.1428"
           sodipodi:cy="187.36218"
           sodipodi:rx="20.714285"
           sodipodi:ry="20.714285"
           d="m -1081.4285,187.36218 c 0,11.44019 -9.2741,20.71429 -20.7143,20.71429 -11.4402,0 -20.7143,-9.2741 -20.7143,-20.71429 0,-11.44018 9.2741,-20.71428 20.7143,-20.71428 11.4402,0 20.7143,9.2741 20.7143,20.71428 z"
           transform="matrix(0.63793102,0,0,0.63793102,107.26451,476.02571)" />
        <path
           sodipodi:type="arc"
           style="fill:#ffffff;fill-opacity:1;stroke:none"
           id="path4599-9-5"
           sodipodi:cx="-1102.1428"
           sodipodi:cy="187.36218"
           sodipodi:rx="20.714285"
           sodipodi:ry="20.714285"
           d="m -1081.4285,187.36218 c 0,11.44019 -9.2741,20.71429 -20.7143,20.71429 -11.4402,0 -20.7143,-9.2741 -20.7143,-20.71429 0,-11.44018 9.2741,-20.71428 20.7143,-20.71428 11.4402,0 20.7143,9.2741 20.7143,20.71428 z"
           transform="matrix(0.63793102,0,0,0.63793102,66.530813,517.78232)" />
        <path
           sodipodi:type="arc"
           style="fill:#ffffff;fill-opacity:1;stroke:none"
           id="path4599-9-5-5"
           sodipodi:cx="-1102.1428"
           sodipodi:cy="187.36218"
           sodipodi:rx="20.714285"
           sodipodi:ry="20.714285"
           d="m -1081.4285,187.36218 c 0,11.44019 -9.2741,20.71429 -20.7143,20.71429 -11.4402,0 -20.7143,-9.2741 -20.7143,-20.71429 0,-11.44018 9.2741,-20.71428 20.7143,-20.71428 11.4402,0 20.7143,9.2741 20.7143,20.71428 z"
           transform="matrix(0.63793102,0,0,0.63793102,25.809926,558.31188)" />
        <path
           sodipodi:type="arc"
           style="fill:#ffffff;fill-opacity:1;stroke:none"
           id="path4599-9-5-4"
           sodipodi:cx="-1102.1428"
           sodipodi:cy="187.36218"
           sodipodi:rx="20.714285"
           sodipodi:ry="20.714285"
           d="m -1081.4285,187.36218 c 0,11.44019 -9.2741,20.71429 -20.7143,20.71429 -11.4402,0 -20.7143,-9.2741 -20.7143,-20.71429 0,-11.44018 9.2741,-20.71428 20.7143,-20.71428 11.4402,0 20.7143,9.2741 20.7143,20.71428 z"
           transform="matrix(0.63793102,0,0,0.63793102,107.26451,558.31188)" />
        <path
           sodipodi:type="arc"
           style="fill:#ffffff;fill-opacity:1;stroke:none"
           id="path4599-9-7"
           sodipodi:cx="-1102.1428"
           sodipodi:cy="187.36218"
           sodipodi:rx="20.714285"
           sodipodi:ry="20.714285"
           d="m -1081.4285,187.36218 c 0,11.44019 -9.2741,20.71429 -20.7143,20.71429 -11.4402,0 -20.7143,-9.2741 -20.7143,-20.71429 0,-11.44018 9.2741,-20.71428 20.7143,-20.71428 11.4402,0 20.7143,9.2741 20.7143,20.71428 z"
           transform="matrix(0.63793102,0,0,0.63793102,107.26451,517.78232)" />
        <path
           sodipodi:type="arc"
           style="fill:#ffffff;fill-opacity:1;stroke:none"
           id="path4599-9-7-8"
           sodipodi:cx="-1102.1428"
           sodipodi:cy="187.36218"
           sodipodi:rx="20.714285"
           sodipodi:ry="20.714285"
           d="m -1081.4285,187.36218 c 0,11.44019 -9.2741,20.71429 -20.7143,20.71429 -11.4402,0 -20.7143,-9.2741 -20.7143,-20.71429 0,-11.44018 9.2741,-20.71428 20.7143,-20.71428 11.4402,0 20.7143,9.2741 20.7143,20.71428 z"
           transform="matrix(0.63793102,0,0,0.63793102,66.530813,558.31188)" />
        <path
           sodipodi:type="arc"
           style="fill:#ffffff;fill-opacity:1;stroke:none"
           id="path4599-9-7-8-3"
           sodipodi:cx="-1102.1428"
           sodipodi:cy="187.36218"
           sodipodi:rx="20.714285"
           sodipodi:ry="20.714285"
           d="m -1081.4285,187.36218 c 0,11.44019 -9.2741,20.71429 -20.7143,20.71429 -11.4402,0 -20.7143,-9.2741 -20.7143,-20.71429 0,-11.44018 9.2741,-20.71428 20.7143,-20.71428 11.4402,0 20.7143,9.2741 20.7143,20.71428 z"
           transform="matrix(0.63793102,0,0,0.63793102,25.809926,517.78232)" />
        <path
           sodipodi:type="arc"
           style="fill:#ffffff;fill-opacity:1;stroke:none"
           id="path4599-9-7-8-3-5"
           sodipodi:cx="-1102.1428"
           sodipodi:cy="187.36218"
           sodipodi:rx="20.714285"
           sodipodi:ry="20.714285"
           d="m -1081.4285,187.36218 c 0,11.44019 -9.2741,20.71429 -20.7143,20.71429 -11.4402,0 -20.7143,-9.2741 -20.7143,-20.71429 0,-11.44018 9.2741,-20.71428 20.7143,-20.71428 11.4402,0 20.7143,9.2741 20.7143,20.71428 z"
           transform="matrix(0.63793102,0,0,0.63793102,66.530813,476.02571)" />
      </g>
    </g>
  </g>
</svg>
