<?xml version="1.0" encoding="UTF-8" standalone="no"?>
<!-- Created with Inkscape (http://www.inkscape.org/) -->

<svg
   xmlns:dc="http://purl.org/dc/elements/1.1/"
   xmlns:cc="http://creativecommons.org/ns#"
   xmlns:rdf="http://www.w3.org/1999/02/22-rdf-syntax-ns#"
   xmlns:svg="http://www.w3.org/2000/svg"
   xmlns="http://www.w3.org/2000/svg"
   xmlns:sodipodi="http://sodipodi.sourceforge.net/DTD/sodipodi-0.dtd"
   xmlns:inkscape="http://www.inkscape.org/namespaces/inkscape"
   width="30"
   height="30"
   id="svg3316"
   version="1.1"
   inkscape:version="0.48.4 r9939"
   sodipodi:docname="Distinct.svg">
  <defs
     id="defs3318" />
  <sodipodi:namedview
     id="base"
     pagecolor="#ffffff"
     bordercolor="#666666"
     borderopacity="1.0"
     inkscape:pageopacity="0.0"
     inkscape:pageshadow="2"
     inkscape:zoom="7.9195959"
     inkscape:cx="0.35038447"
     inkscape:cy="-5.6917796"
     inkscape:document-units="px"
     inkscape:current-layer="layer1"
     showgrid="false"
     fit-margin-top="0"
     fit-margin-left="0"
     fit-margin-right="0"
     fit-margin-bottom="0"
     inkscape:window-width="942"
     inkscape:window-height="985"
     inkscape:window-x="960"
     inkscape:window-y="0"
     inkscape:window-maximized="0" />
  <metadata
     id="metadata3321">
    <rdf:RDF>
      <cc:Work
         rdf:about="">
        <dc:format>image/svg+xml</dc:format>
        <dc:type
           rdf:resource="http://purl.org/dc/dcmitype/StillImage" />
        <dc:title />
      </cc:Work>
    </rdf:RDF>
  </metadata>
  <g
     inkscape:label="Layer 1"
     inkscape:groupmode="layer"
     id="layer1"
     transform="translate(-791.40607,-496.6704)">
    <g
       id="g3005">
      <path
         inkscape:export-ydpi="150.27"
         inkscape:export-xdpi="150.27"
         inkscape:export-filename="C:\Users\daninux\Iconos Boubeta\maximo 16x16 px.png"
         d="m 401.03056,478.59555 c 0,37.37875 -30.30146,67.68022 -67.68022,67.68022 -37.37875,0 -67.68022,-30.30147 -67.68022,-67.68022 0,-37.37875 30.30147,-67.68022 67.68022,-67.68022 37.37876,0 67.68022,30.30147 67.68022,67.68022 z"
         sodipodi:ry="67.680222"
         sodipodi:rx="67.680222"
         sodipodi:cy="478.59555"
         sodipodi:cx="333.35034"
         id="path2985-9-1-1-7-1"
         style="fill:#266e9f;fill-opacity:1;fill-rule:evenodd;stroke:none"
         sodipodi:type="arc"
         transform="matrix(0.22163048,0,0,0.22163048,732.52547,405.59904)" />
      <path
         transform="matrix(0.23506594,0,0,0.23506594,1060.3428,462.60752)"
         d="m -1081.4285,187.36218 c 0,11.44019 -9.2741,20.71429 -20.7143,20.71429 -11.4402,0 -20.7143,-9.2741 -20.7143,-20.71429 0,-11.44018 9.2741,-20.71428 20.7143,-20.71428 11.4402,0 20.7143,9.2741 20.7143,20.71428 z"
         sodipodi:ry="20.714285"
         sodipodi:rx="20.714285"
         sodipodi:cy="187.36218"
         sodipodi:cx="-1102.1428"
         id="path4599-3-7"
         style="fill:#ffffff;fill-opacity:1;stroke:none"
         sodipodi:type="arc" />
      <path
         transform="matrix(0.10802298,0,0,0.10802298,931.90953,484.1315)"
         d="m -1081.4285,187.36218 c 0,11.44019 -9.2741,20.71429 -20.7143,20.71429 -11.4402,0 -20.7143,-9.2741 -20.7143,-20.71429 0,-11.44018 9.2741,-20.71428 20.7143,-20.71428 11.4402,0 20.7143,9.2741 20.7143,20.71428 z"
         sodipodi:ry="20.714285"
         sodipodi:rx="20.714285"
         sodipodi:cy="187.36218"
         sodipodi:cx="-1102.1428"
         id="path4599-9-4-4"
         style="fill:#ffffff;fill-opacity:1;stroke:none"
         sodipodi:type="arc" />
      <path
         transform="matrix(0.10802298,0,0,0.10802298,918.51408,498.14383)"
         d="m -1081.4285,187.36218 c 0,11.44019 -9.2741,20.71429 -20.7143,20.71429 -11.4402,0 -20.7143,-9.2741 -20.7143,-20.71429 0,-11.44018 9.2741,-20.71428 20.7143,-20.71428 11.4402,0 20.7143,9.2741 20.7143,20.71428 z"
         sodipodi:ry="20.714285"
         sodipodi:rx="20.714285"
         sodipodi:cy="187.36218"
         sodipodi:cx="-1102.1428"
         id="path4599-9-5-5-8-0"
         style="fill:#ffffff;fill-opacity:1;stroke:none"
         sodipodi:type="arc" />
      <path
         transform="matrix(0.23506594,0,0,0.23506594,1070.0611,472.37779)"
         d="m -1081.4285,187.36218 c 0,11.44019 -9.2741,20.71429 -20.7143,20.71429 -11.4402,0 -20.7143,-9.2741 -20.7143,-20.71429 0,-11.44018 9.2741,-20.71428 20.7143,-20.71428 11.4402,0 20.7143,9.2741 20.7143,20.71428 z"
         sodipodi:ry="20.714285"
         sodipodi:rx="20.714285"
         sodipodi:cy="187.36218"
         sodipodi:cx="-1102.1428"
         id="path4599-3-4-9"
         style="fill:#ffffff;fill-opacity:1;stroke:none"
         sodipodi:type="arc" />
    </g>
  </g>
</svg>
