<?xml version="1.0" encoding="UTF-8" standalone="no"?>
<!-- Created with Inkscape (http://www.inkscape.org/) -->

<svg
   xmlns:dc="http://purl.org/dc/elements/1.1/"
   xmlns:cc="http://creativecommons.org/ns#"
   xmlns:rdf="http://www.w3.org/1999/02/22-rdf-syntax-ns#"
   xmlns:svg="http://www.w3.org/2000/svg"
   xmlns="http://www.w3.org/2000/svg"
   xmlns:sodipodi="http://sodipodi.sourceforge.net/DTD/sodipodi-0.dtd"
   xmlns:inkscape="http://www.inkscape.org/namespaces/inkscape"
   width="30"
   height="30"
   id="svg3316"
   version="1.1"
   inkscape:version="0.48.5 r10040"
   sodipodi:docname="GroupBy.svg"
   inkscape:export-filename="C:\Users\Juan\Desktop\GroupBy.gif.png"
   inkscape:export-xdpi="59.517056"
   inkscape:export-ydpi="59.517056">
  <defs
     id="defs3318" />
  <sodipodi:namedview
     id="base"
     pagecolor="#ffffff"
     bordercolor="#666666"
     borderopacity="1.0"
     inkscape:pageopacity="0.0"
     inkscape:pageshadow="2"
     inkscape:zoom="15.110591"
     inkscape:cx="26.270955"
     inkscape:cy="19.185883"
     inkscape:document-units="px"
     inkscape:current-layer="layer2"
     showgrid="false"
     fit-margin-top="0"
     fit-margin-left="0"
     fit-margin-right="0"
     fit-margin-bottom="0"
     inkscape:window-width="1920"
     inkscape:window-height="1018"
     inkscape:window-x="-8"
     inkscape:window-y="-8"
     inkscape:window-maximized="1" />
  <metadata
     id="metadata3321">
    <rdf:RDF>
      <cc:Work
         rdf:about="">
        <dc:format>image/svg+xml</dc:format>
        <dc:type
           rdf:resource="http://purl.org/dc/dcmitype/StillImage" />
        <dc:title></dc:title>
      </cc:Work>
    </rdf:RDF>
  </metadata>
  <g
     inkscape:label="Layer 1"
     inkscape:groupmode="layer"
     id="layer1"
     transform="translate(-792.84589,-493.802)"
     style="display:inline">
    <rect
       style="fill:#ffffff;fill-opacity:1;stroke:none"
       id="rect6239-7-2-6-6-1"
       width="30"
       height="30"
       x="837.59406"
       y="503.51889" />
    <path
       inkscape:connector-curvature="0"
       d="m 822.48691,498.89945 c 0,-2.22273 -6.57698,-4.0255 -14.69076,-4.0255 -8.113,0 -14.68998,1.80277 -14.68998,4.0255 0,0.0473 0.007,0.0942 0.0129,0.14116 -0.002,0.0114 -0.0129,0.0147 -0.0129,0.0288 0,0.21287 0,0.56658 0,0.78553 0,0.21957 0.12693,0.50286 0.28206,0.62993 0.15513,0.12676 0.5645,0.46255 0.9108,0.74615 l 10.62055,8.70272 c 0,2.8642 0,6.35866 0,6.47773 0,0.20295 0.46852,1.05087 2.87735,1.05087 2.40805,0 2.87657,-0.79671 2.87657,-1.05087 0,-0.14947 0,-3.64107 0,-6.49599 l 10.73337,-8.77825 c 0.34592,-0.28361 0.7306,-0.59794 0.85518,-0.69909 0.12301,-0.10138 0.22486,-0.33385 0.22486,-0.51694 0,-0.1831 0,-0.53713 0,-0.78584 0,-0.0221 -0.0133,-0.0303 -0.018,-0.0478 0.0103,-0.0625 0.018,-0.12514 0.018,-0.18821 z m -14.69076,-2.18305 c 7.28838,0 11.44165,1.43147 12.32934,2.18305 -0.88769,0.75191 -5.04056,2.18304 -12.32934,2.18304 -7.288,0 -11.44087,-1.43145 -12.32816,-2.18304 0.88729,-0.7519 5.04016,-2.18305 12.32816,-2.18305 z"
       id="path3849" />
  </g>
  <g
     inkscape:groupmode="layer"
     id="layer2"
     inkscape:label="Capa"
     style="display:inline">
    <path
       inkscape:connector-curvature="0"
       id="path4592-84"
       d="m 6.942399,5.7333734 c -1.38811,-0.53946 -1.54346,-2.3804 -0.26029,-3.08461 0.57769,-0.31703 1.44906,-0.27217 1.96732,0.10128 0.9719005,0.70036 0.9427705,2.08264 -0.0587,2.7891 -0.28462,0.20075 -1.31809,0.32253 -1.64825,0.19423 z"
       style="fill:#e00000;fill-opacity:1;fill-rule:nonzero;stroke:#e00000;stroke-width:0.80800003;stroke-miterlimit:4;stroke-opacity:1;stroke-dasharray:none;display:inline" />
    <path
       inkscape:connector-curvature="0"
       id="path4592-84-1"
       d="m 10.403736,3.7832302 c -1.3881095,-0.53946 -1.5434591,-2.3804 -0.26029,-3.08461015 0.57769,-0.31703 1.44906,-0.27217 1.96732,0.10128 0.9719,0.70036015 0.94277,2.08264015 -0.0587,2.78910015 -0.28462,0.20075 -1.31809,0.32253 -1.64825,0.19423 z"
       style="fill:#009000;fill-opacity:1;fill-rule:nonzero;stroke:#009000;stroke-width:0.80805773;stroke-opacity:1;display:inline" />
    <path
       inkscape:connector-curvature="0"
       id="path4592-84-1-3"
       d="m 13.413792,6.6831712 c -1.38811,-0.53946 -1.54346,-2.3804004 -0.26029,-3.0846104 0.57769,-0.31703 1.44906,-0.27217 1.96732,0.10128 0.971901,0.70036 0.942771,2.0826404 -0.0587,2.7891004 -0.28462,0.20075 -1.31809,0.32253 -1.64825,0.19423 z"
       style="fill:#1e00ff;fill-opacity:1;fill-rule:nonzero;stroke:#1e00ff;stroke-width:0.80805773;stroke-opacity:1;display:inline" />
    <path
       inkscape:connector-curvature="0"
       id="path4592-84-1-3-8"
       d="m 24.125505,4.8384868 c -1.38811,-0.53946 -1.54346,-2.3804004 -0.26029,-3.0846104 0.57769,-0.3170299 1.44906,-0.2721699 1.96732,0.10128 0.971901,0.70036 0.942771,2.0826404 -0.0587,2.7891004 -0.28462,0.20075 -1.31809,0.32253 -1.64825,0.19423 z"
       style="fill:#1e00ff;fill-opacity:1;fill-rule:nonzero;stroke:#1e00ff;stroke-width:0.80805773;stroke-opacity:1;display:inline" />
    <path
       inkscape:connector-curvature="0"
       id="path4592-84-9"
       d="m 16.959152,3.7624278 c -1.38811,-0.53946 -1.54346,-2.3804 -0.26029,-3.08460999 0.57769,-0.31703 1.44906,-0.27217 1.96732,0.10128 0.9719,0.70035999 0.94277,2.08263999 -0.0587,2.78909999 -0.28462,0.20075 -1.31809,0.32253 -1.64825,0.19423 z"
       style="fill:#e00000;fill-opacity:1;fill-rule:nonzero;stroke:#e00000;stroke-width:0.80800003;stroke-miterlimit:4;stroke-opacity:1;stroke-dasharray:none;display:inline" />
    <path
       inkscape:connector-curvature="0"
       id="path4592-84-1-34"
       d="m 20.098106,6.3057743 c -1.38811,-0.53946 -1.543459,-2.3804005 -0.26029,-3.0846107 0.57769,-0.31703 1.449061,-0.27217 1.967321,0.10128 0.9719,0.7003602 0.94277,2.0826402 -0.0587,2.7891007 -0.28462,0.20075 -1.318091,0.32253 -1.648251,0.19423 z"
       style="fill:#009000;fill-opacity:1;fill-rule:nonzero;stroke:#009000;stroke-width:0.80805773;stroke-opacity:1;display:inline" />
    <path
       inkscape:connector-curvature="0"
       id="path4592-84-1-4"
       d="m 2.0106448,24.425586 c -1.38811005,-0.53946 -1.54345965,-2.3804 -0.26029,-3.08461 0.57769,-0.31703 1.4490597,-0.27217 1.9673197,0.10128 0.9719,0.70036 0.94277,2.08264 -0.0587,2.7891 -0.28462,0.20075 -1.3180897,0.32253 -1.6482497,0.19423 z"
       style="fill:#009000;fill-opacity:1;fill-rule:nonzero;stroke:#009000;stroke-width:0.80805773;stroke-opacity:1;display:inline" />
    <path
       inkscape:connector-curvature="0"
       id="path4592-84-1-6"
       d="m 2.1394404,29.172924 c -1.38811005,-0.53946 -1.54345965,-2.3804 -0.26029,-3.08461 0.57769,-0.31703 1.44906,-0.27217 1.96732,0.10128 0.9719,0.70036 0.94277,2.08264 -0.0587,2.7891 -0.28462,0.20075 -1.31809,0.32253 -1.64825,0.19423 z"
       style="fill:#009000;fill-opacity:1;fill-rule:nonzero;stroke:#009000;stroke-width:0.80805773;stroke-opacity:1;display:inline" />
    <path
       inkscape:connector-curvature="0"
       id="path4592-84-9-0"
       d="m 8.2940643,29.106746 c -1.38811,-0.53946 -1.54346,-2.3804 -0.26029,-3.08461 0.57769,-0.31703 1.4490597,-0.27217 1.9673197,0.10128 0.9719,0.70036 0.94277,2.08264 -0.0587,2.7891 -0.28462,0.20075 -1.3180897,0.32253 -1.6482497,0.19423 z"
       style="fill:#e00000;fill-opacity:1;fill-rule:nonzero;stroke:#e00000;stroke-width:0.80800003;stroke-miterlimit:4;stroke-opacity:1;stroke-dasharray:none;display:inline" />
    <path
       inkscape:connector-curvature="0"
       id="path4592-84-9-6"
       d="m 8.4264214,24.408054 c -1.38811,-0.53946 -1.54346,-2.3804 -0.26029,-3.08461 0.57769,-0.31703 1.4490598,-0.27217 1.9673196,0.10128 0.971901,0.70036 0.942771,2.08264 -0.0587,2.7891 -0.2846198,0.20075 -1.3180896,0.32253 -1.6482496,0.19423 z"
       style="fill:#e00000;fill-opacity:1;fill-rule:nonzero;stroke:#e00000;stroke-width:0.80800003;stroke-miterlimit:4;stroke-opacity:1;stroke-dasharray:none;display:inline" />
    <path
       inkscape:connector-curvature="0"
       id="path4592-84-1-3-6"
       d="m 21.860708,24.408054 c -1.38811,-0.53946 -1.54346,-2.380401 -0.26029,-3.084611 0.57769,-0.31703 1.44906,-0.27217 1.96732,0.10128 0.971901,0.70036 0.942771,2.082641 -0.0587,2.789101 -0.28462,0.20075 -1.31809,0.32253 -1.64825,0.19423 z"
       style="fill:#1e00ff;fill-opacity:1;fill-rule:nonzero;stroke:#1e00ff;stroke-width:0.80805773;stroke-opacity:1;display:inline" />
    <path
       inkscape:connector-curvature="0"
       id="path4592-84-1-3-6-1"
       d="m 21.860708,28.974389 c -1.38811,-0.53946 -1.54346,-2.380401 -0.26029,-3.084611 0.57769,-0.31703 1.44906,-0.27217 1.96732,0.10128 0.971901,0.70036 0.942771,2.082641 -0.0587,2.789101 -0.28462,0.20075 -1.31809,0.32253 -1.64825,0.19423 z"
       style="fill:#1e00ff;fill-opacity:1;fill-rule:nonzero;stroke:#1e00ff;stroke-width:0.80805773;stroke-opacity:1;display:inline" />
    <path
       inkscape:connector-curvature="0"
       id="path4592-84-1-3-6-8"
       d="m 21.72835,19.841721 c -1.38811,-0.53946 -1.54346,-2.380401 -0.26029,-3.084611 0.57769,-0.31703 1.44906,-0.27217 1.96732,0.10128 0.971901,0.70036 0.942771,2.082641 -0.0587,2.789101 -0.28462,0.20075 -1.31809,0.32253 -1.64825,0.19423 z"
       style="fill:#1e00ff;fill-opacity:1;fill-rule:nonzero;stroke:#1e00ff;stroke-width:0.80805773;stroke-opacity:1;display:inline" />
    <path
       inkscape:connector-curvature="0"
       id="path4592-84-1-3-8-4"
       d="m 4.0586239,3.8264631 c -1.38811,-0.53946 -1.54346,-2.380401 -0.26029,-3.08461105 0.57769,-0.31703 1.44906,-0.27217 1.96732,0.10128 0.971901,0.70036005 0.942771,2.08264105 -0.0587,2.78910105 -0.28462,0.20075 -1.31809,0.32253 -1.64825,0.19423 z"
       style="fill:#1e00ff;fill-opacity:1;fill-rule:nonzero;stroke:#1e00ff;stroke-width:0.80805773;stroke-opacity:1;display:inline" />
  </g>
</svg>
