<?xml version="1.0" encoding="UTF-8" standalone="no"?>
<!-- Created with Inkscape (http://www.inkscape.org/) -->

<svg
   xmlns:dc="http://purl.org/dc/elements/1.1/"
   xmlns:cc="http://creativecommons.org/ns#"
   xmlns:rdf="http://www.w3.org/1999/02/22-rdf-syntax-ns#"
   xmlns:svg="http://www.w3.org/2000/svg"
   xmlns="http://www.w3.org/2000/svg"
   xmlns:sodipodi="http://sodipodi.sourceforge.net/DTD/sodipodi-0.dtd"
   xmlns:inkscape="http://www.inkscape.org/namespaces/inkscape"
   width="30"
   height="30"
   id="svg3316"
   version="1.1"
   inkscape:version="0.48.4 r9939"
   sodipodi:docname="Not.svg">
  <defs
     id="defs3318" />
  <sodipodi:namedview
     id="base"
     pagecolor="#ffffff"
     bordercolor="#666666"
     borderopacity="1.0"
     inkscape:pageopacity="0.0"
     inkscape:pageshadow="2"
     inkscape:zoom="5.6"
     inkscape:cx="15.349125"
     inkscape:cy="14.809584"
     inkscape:document-units="px"
     inkscape:current-layer="layer1"
     showgrid="false"
     fit-margin-top="0"
     fit-margin-left="0"
     fit-margin-right="0"
     fit-margin-bottom="0"
     inkscape:window-width="942"
     inkscape:window-height="985"
     inkscape:window-x="960"
     inkscape:window-y="0"
     inkscape:window-maximized="0" />
  <metadata
     id="metadata3321">
    <rdf:RDF>
      <cc:Work
         rdf:about="">
        <dc:format>image/svg+xml</dc:format>
        <dc:type
           rdf:resource="http://purl.org/dc/dcmitype/StillImage" />
        <dc:title />
      </cc:Work>
    </rdf:RDF>
  </metadata>
  <g
     inkscape:label="Layer 1"
     inkscape:groupmode="layer"
     id="layer1"
     transform="translate(-787.12037,-496.67039)">
    <path
       transform="matrix(0.22163048,0,0,0.22163048,728.23977,405.59903)"
       sodipodi:type="arc"
       style="fill:#53a4ad;fill-opacity:1;fill-rule:evenodd;stroke:none"
       id="path2985-9-7-7-6"
       sodipodi:cx="333.35034"
       sodipodi:cy="478.59555"
       sodipodi:rx="67.680222"
       sodipodi:ry="67.680222"
       d="m 401.03056,478.59555 c 0,37.37875 -30.30146,67.68022 -67.68022,67.68022 -37.37875,0 -67.68022,-30.30147 -67.68022,-67.68022 0,-37.37875 30.30147,-67.68022 67.68022,-67.68022 37.37876,0 67.68022,30.30147 67.68022,67.68022 z"
       inkscape:export-filename="C:\Users\daninux\Iconos Boubeta\followed by 16x16 px.png"
       inkscape:export-xdpi="89.999832"
       inkscape:export-ydpi="89.999832" />
    <g
       id="g3006"
       transform="translate(0.15625127,-7.5326784e-7)">
      <path
         inkscape:connector-curvature="0"
         id="path4181"
         d="m 801.98351,517.73322 c 0.34937,0 0.67938,0.0696 0.98994,0.20857 0.31053,0.13911 0.57904,0.32786 0.80552,0.56628 0.22643,0.23842 0.4076,0.51987 0.54347,0.84436 0.13587,0.32448 0.20381,0.66557 0.20381,1.02319 0,0.35759 -0.068,0.69536 -0.20381,1.01327 -0.13587,0.31783 -0.31704,0.59269 -0.54347,0.82448 -0.22648,0.23179 -0.49499,0.41722 -0.80552,0.55631 -0.31056,0.13905 -0.64057,0.20858 -0.98994,0.20858 -0.36232,0 -0.69875,-0.0696 -1.00931,-0.20858 -0.31058,-0.13909 -0.58232,-0.32452 -0.81526,-0.55631 -0.2329,-0.23179 -0.41731,-0.50665 -0.55315,-0.82448 -0.13589,-0.31791 -0.20384,-0.65568 -0.20381,-1.01327 -3e-5,-0.35762 0.068,-0.69871 0.20381,-1.02319 0.13584,-0.32449 0.32025,-0.60594 0.55315,-0.84436 0.23294,-0.23842 0.50468,-0.42717 0.81526,-0.56628 0.31056,-0.13902 0.64699,-0.20857 1.00931,-0.20857 z"
         style="font-size:174.41929626px;font-style:normal;font-weight:normal;line-height:125%;letter-spacing:0px;word-spacing:0px;fill:#ffffff;fill-opacity:1;stroke:none;font-family:cONSOLAS;-inkscape-font-specification:cONSOLAS" />
      <g
         id="text3755-3-4-1"
         style="font-size:303.76187134px;font-style:normal;font-weight:normal;line-height:125%;letter-spacing:0px;word-spacing:0px;fill:#ffffff;fill-opacity:1;stroke:none;font-family:Sans"
         transform="matrix(0,0.17030558,-0.11100398,0,1122.9177,380.45649)">
        <path
           sodipodi:nodetypes="ccccc"
           inkscape:connector-curvature="0"
           id="path4212"
           d="m 704.06404,2904.7933 0,-26.8461 82.11654,1.512 0,23.8221 z" />
      </g>
    </g>
  </g>
</svg>
