<?xml version="1.0" encoding="UTF-8" standalone="no"?>
<!-- Created with Inkscape (http://www.inkscape.org/) -->

<svg
   xmlns:dc="http://purl.org/dc/elements/1.1/"
   xmlns:cc="http://creativecommons.org/ns#"
   xmlns:rdf="http://www.w3.org/1999/02/22-rdf-syntax-ns#"
   xmlns:svg="http://www.w3.org/2000/svg"
   xmlns="http://www.w3.org/2000/svg"
   xmlns:sodipodi="http://sodipodi.sourceforge.net/DTD/sodipodi-0.dtd"
   xmlns:inkscape="http://www.inkscape.org/namespaces/inkscape"
   width="30"
   height="30"
   id="svg3316"
   version="1.1"
   inkscape:version="0.48.4 r9939"
   sodipodi:docname="SlidingEventInterval.svg">
  <defs
     id="defs3318" />
  <sodipodi:namedview
     id="base"
     pagecolor="#ffffff"
     bordercolor="#666666"
     borderopacity="1.0"
     inkscape:pageopacity="0.0"
     inkscape:pageshadow="2"
     inkscape:zoom="11.2"
     inkscape:cx="13.372934"
     inkscape:cy="8.4842139"
     inkscape:document-units="px"
     inkscape:current-layer="layer1"
     showgrid="false"
     fit-margin-top="0"
     fit-margin-left="0"
     fit-margin-right="0"
     fit-margin-bottom="0"
     inkscape:window-width="942"
     inkscape:window-height="985"
     inkscape:window-x="960"
     inkscape:window-y="0"
     inkscape:window-maximized="0"
     showguides="true"
     inkscape:guide-bbox="true">
    <sodipodi:guide
       orientation="0,1"
       position="18.839286,17.589286"
       id="guide3766" />
  </sodipodi:namedview>
  <metadata
     id="metadata3321">
    <rdf:RDF>
      <cc:Work
         rdf:about="">
        <dc:format>image/svg+xml</dc:format>
        <dc:type
           rdf:resource="http://purl.org/dc/dcmitype/StillImage" />
        <dc:title />
      </cc:Work>
    </rdf:RDF>
  </metadata>
  <g
     inkscape:label="Layer 1"
     inkscape:groupmode="layer"
     id="layer1"
     transform="translate(-794.27448,-493.802)">
    <rect
       style="fill:#266e9f;fill-opacity:1;stroke:none"
       id="rect6239-7-2-6-6-1-6-7-0-0-1"
       width="30"
       height="30"
       x="794.27448"
       y="493.802" />
    <rect
       style="fill:#ffffff;fill-opacity:1;stroke:none"
       id="rect6239-7-2-6-6-1-4-0-3-3-1-8"
       width="23.64407"
       height="23.64407"
       x="797.45245"
       y="496.97998" />
    <rect
       style="fill:#f9f9f9;fill-opacity:1;stroke:#000000;stroke-width:1.20000005;stroke-linejoin:round;stroke-miterlimit:4;stroke-opacity:1;stroke-dasharray:none;stroke-dashoffset:0"
       id="rect3356-73-8"
       width="7.76406"
       height="14.126376"
       x="799.53949"
       y="498.55341" />
    <g
       id="g5567-3-4"
       transform="matrix(0.12435528,0,0,0.12435528,891.04758,320.64161)">
      <path
         inkscape:export-ydpi="89.999832"
         inkscape:export-xdpi="89.999832"
         inkscape:export-filename="C:\Users\daninux\Iconos Boubeta\followed by 16x16 px.png"
         d="m 401.03056,478.59555 c 0,37.37875 -30.30146,67.68022 -67.68022,67.68022 -37.37875,0 -67.68022,-30.30147 -67.68022,-67.68022 0,-37.37875 30.30147,-67.68022 67.68022,-67.68022 37.37876,0 67.68022,30.30147 67.68022,67.68022 z"
         sodipodi:ry="67.680222"
         sodipodi:rx="67.680222"
         sodipodi:cy="478.59555"
         sodipodi:cx="333.35034"
         id="path2985-9-17-4-2-1-6-3-5-1"
         style="fill:#266e9f;fill-opacity:1;fill-rule:evenodd;stroke:none"
         sodipodi:type="arc"
         transform="matrix(0.31150424,0,0,0.31150424,-808.48292,1315.0634)" />
      <path
         inkscape:export-ydpi="89.999832"
         inkscape:export-xdpi="89.999832"
         inkscape:export-filename="C:\Users\daninux\Iconos Boubeta\followed by 16x16 px.png"
         d="m 401.03056,478.59555 c 0,37.37875 -30.30146,67.68022 -67.68022,67.68022 -37.37875,0 -67.68022,-30.30147 -67.68022,-67.68022 0,-37.37875 30.30147,-67.68022 67.68022,-67.68022 37.37876,0 67.68022,30.30147 67.68022,67.68022 z"
         sodipodi:ry="67.680222"
         sodipodi:rx="67.680222"
         sodipodi:cy="478.59555"
         sodipodi:cx="333.35034"
         id="path2985-9-17-4-0-4-1-1-2-99-4"
         style="fill:#ffffff;fill-opacity:1;fill-rule:evenodd;stroke:none"
         sodipodi:type="arc"
         transform="matrix(0.16549909,0,0,0.16549909,-759.81205,1384.9408)" />
    </g>
    <g
       id="g5567-6-8-3"
       transform="matrix(0.12435528,0,0,0.12435528,891.04758,326.85423)">
      <path
         inkscape:export-ydpi="89.999832"
         inkscape:export-xdpi="89.999832"
         inkscape:export-filename="C:\Users\daninux\Iconos Boubeta\followed by 16x16 px.png"
         d="m 401.03056,478.59555 c 0,37.37875 -30.30146,67.68022 -67.68022,67.68022 -37.37875,0 -67.68022,-30.30147 -67.68022,-67.68022 0,-37.37875 30.30147,-67.68022 67.68022,-67.68022 37.37876,0 67.68022,30.30147 67.68022,67.68022 z"
         sodipodi:ry="67.680222"
         sodipodi:rx="67.680222"
         sodipodi:cy="478.59555"
         sodipodi:cx="333.35034"
         id="path2985-9-17-4-2-1-6-3-8-1-9"
         style="fill:#266e9f;fill-opacity:1;fill-rule:evenodd;stroke:none"
         sodipodi:type="arc"
         transform="matrix(0.31150424,0,0,0.31150424,-808.48292,1315.0634)" />
      <path
         inkscape:export-ydpi="89.999832"
         inkscape:export-xdpi="89.999832"
         inkscape:export-filename="C:\Users\daninux\Iconos Boubeta\followed by 16x16 px.png"
         d="m 401.03056,478.59555 c 0,37.37875 -30.30146,67.68022 -67.68022,67.68022 -37.37875,0 -67.68022,-30.30147 -67.68022,-67.68022 0,-37.37875 30.30147,-67.68022 67.68022,-67.68022 37.37876,0 67.68022,30.30147 67.68022,67.68022 z"
         sodipodi:ry="67.680222"
         sodipodi:rx="67.680222"
         sodipodi:cy="478.59555"
         sodipodi:cx="333.35034"
         id="path2985-9-17-4-0-4-1-1-2-5-82-8"
         style="fill:#ffffff;fill-opacity:1;fill-rule:evenodd;stroke:none"
         sodipodi:type="arc"
         transform="matrix(0.16549909,0,0,0.16549909,-759.81205,1384.9408)" />
    </g>
    <rect
       style="fill:#f9f9f9;fill-opacity:1;stroke:#000000;stroke-width:1.20000005;stroke-linejoin:round;stroke-miterlimit:4;stroke-opacity:1;stroke-dasharray:none;stroke-dashoffset:0"
       id="rect3356-7-6-8"
       width="7.76406"
       height="14.126376"
       x="811.15613"
       y="504.92429" />
    <g
       id="g5567-63-6-0"
       transform="matrix(0.12435528,0,0,0.12435528,902.66423,327.01253)">
      <path
         inkscape:export-ydpi="89.999832"
         inkscape:export-xdpi="89.999832"
         inkscape:export-filename="C:\Users\daninux\Iconos Boubeta\followed by 16x16 px.png"
         d="m 401.03056,478.59555 c 0,37.37875 -30.30146,67.68022 -67.68022,67.68022 -37.37875,0 -67.68022,-30.30147 -67.68022,-67.68022 0,-37.37875 30.30147,-67.68022 67.68022,-67.68022 37.37876,0 67.68022,30.30147 67.68022,67.68022 z"
         sodipodi:ry="67.680222"
         sodipodi:rx="67.680222"
         sodipodi:cy="478.59555"
         sodipodi:cx="333.35034"
         id="path2985-9-17-4-2-1-6-3-6-0-8"
         style="fill:#266e9f;fill-opacity:1;fill-rule:evenodd;stroke:none"
         sodipodi:type="arc"
         transform="matrix(0.31150424,0,0,0.31150424,-808.48292,1315.0634)" />
      <path
         inkscape:export-ydpi="89.999832"
         inkscape:export-xdpi="89.999832"
         inkscape:export-filename="C:\Users\daninux\Iconos Boubeta\followed by 16x16 px.png"
         d="m 401.03056,478.59555 c 0,37.37875 -30.30146,67.68022 -67.68022,67.68022 -37.37875,0 -67.68022,-30.30147 -67.68022,-67.68022 0,-37.37875 30.30147,-67.68022 67.68022,-67.68022 37.37876,0 67.68022,30.30147 67.68022,67.68022 z"
         sodipodi:ry="67.680222"
         sodipodi:rx="67.680222"
         sodipodi:cy="478.59555"
         sodipodi:cx="333.35034"
         id="path2985-9-17-4-0-4-1-1-2-1-3-7"
         style="fill:#ffffff;fill-opacity:1;fill-rule:evenodd;stroke:none"
         sodipodi:type="arc"
         transform="matrix(0.16549909,0,0,0.16549909,-759.81205,1384.9408)" />
    </g>
    <g
       id="g5567-6-5-8-7"
       transform="matrix(0.12435528,0,0,0.12435528,902.66423,333.22511)">
      <path
         inkscape:export-ydpi="89.999832"
         inkscape:export-xdpi="89.999832"
         inkscape:export-filename="C:\Users\daninux\Iconos Boubeta\followed by 16x16 px.png"
         d="m 401.03056,478.59555 c 0,37.37875 -30.30146,67.68022 -67.68022,67.68022 -37.37875,0 -67.68022,-30.30147 -67.68022,-67.68022 0,-37.37875 30.30147,-67.68022 67.68022,-67.68022 37.37876,0 67.68022,30.30147 67.68022,67.68022 z"
         sodipodi:ry="67.680222"
         sodipodi:rx="67.680222"
         sodipodi:cy="478.59555"
         sodipodi:cx="333.35034"
         id="path2985-9-17-4-2-1-6-3-8-4-0-8"
         style="fill:#266e9f;fill-opacity:1;fill-rule:evenodd;stroke:none"
         sodipodi:type="arc"
         transform="matrix(0.31150424,0,0,0.31150424,-808.48292,1315.0634)" />
      <path
         inkscape:export-ydpi="89.999832"
         inkscape:export-xdpi="89.999832"
         inkscape:export-filename="C:\Users\daninux\Iconos Boubeta\followed by 16x16 px.png"
         d="m 401.03056,478.59555 c 0,37.37875 -30.30146,67.68022 -67.68022,67.68022 -37.37875,0 -67.68022,-30.30147 -67.68022,-67.68022 0,-37.37875 30.30147,-67.68022 67.68022,-67.68022 37.37876,0 67.68022,30.30147 67.68022,67.68022 z"
         sodipodi:ry="67.680222"
         sodipodi:rx="67.680222"
         sodipodi:cy="478.59555"
         sodipodi:cx="333.35034"
         id="path2985-9-17-4-0-4-1-1-2-5-2-1-3"
         style="fill:#ffffff;fill-opacity:1;fill-rule:evenodd;stroke:none"
         sodipodi:type="arc"
         transform="matrix(0.16549909,0,0,0.16549909,-759.81205,1384.9408)" />
    </g>
  </g>
</svg>
