<?xml version="1.0" encoding="UTF-8" standalone="no"?>
<!-- Created with Inkscape (http://www.inkscape.org/) -->

<svg
   xmlns:dc="http://purl.org/dc/elements/1.1/"
   xmlns:cc="http://creativecommons.org/ns#"
   xmlns:rdf="http://www.w3.org/1999/02/22-rdf-syntax-ns#"
   xmlns:svg="http://www.w3.org/2000/svg"
   xmlns="http://www.w3.org/2000/svg"
   xmlns:sodipodi="http://sodipodi.sourceforge.net/DTD/sodipodi-0.dtd"
   xmlns:inkscape="http://www.inkscape.org/namespaces/inkscape"
   width="30"
   height="30"
   id="svg3316"
   version="1.1"
   inkscape:version="0.48.4 r9939"
   sodipodi:docname="SlidingTimeInterval.svg">
  <defs
     id="defs3318" />
  <sodipodi:namedview
     id="base"
     pagecolor="#ffffff"
     bordercolor="#666666"
     borderopacity="1.0"
     inkscape:pageopacity="0.0"
     inkscape:pageshadow="2"
     inkscape:zoom="11.2"
     inkscape:cx="29.910714"
     inkscape:cy="7.8198385"
     inkscape:document-units="px"
     inkscape:current-layer="layer1"
     showgrid="false"
     fit-margin-top="0"
     fit-margin-left="0"
     fit-margin-right="0"
     fit-margin-bottom="0"
     inkscape:window-width="942"
     inkscape:window-height="985"
     inkscape:window-x="960"
     inkscape:window-y="0"
     inkscape:window-maximized="0" />
  <metadata
     id="metadata3321">
    <rdf:RDF>
      <cc:Work
         rdf:about="">
        <dc:format>image/svg+xml</dc:format>
        <dc:type
           rdf:resource="http://purl.org/dc/dcmitype/StillImage" />
        <dc:title />
      </cc:Work>
    </rdf:RDF>
  </metadata>
  <g
     inkscape:label="Layer 1"
     inkscape:groupmode="layer"
     id="layer1"
     transform="translate(-795.70306,-493.802)">
    <rect
       style="fill:#266e9f;fill-opacity:1;stroke:none"
       id="rect6239-7-2-6-6-1-6-7-0-0-1-3"
       width="30"
       height="30"
       x="795.70306"
       y="493.802" />
    <rect
       style="fill:#ffffff;fill-opacity:1;stroke:none"
       id="rect6239-7-2-6-6-1-4-0-3-3-1-8-7"
       width="23.64407"
       height="23.64407"
       x="798.88104"
       y="496.97995" />
    <g
       id="g3066"
       transform="translate(-10.267857,-32.946429)">
      <rect
         y="531.41052"
         x="811.28058"
         height="14.126376"
         width="7.76406"
         id="rect3356-73-8"
         style="fill:#f9f9f9;fill-opacity:1;stroke:#000000;stroke-width:1.20000005;stroke-linejoin:round;stroke-miterlimit:4;stroke-opacity:1;stroke-dasharray:none;stroke-dashoffset:0" />
      <g
         transform="matrix(0.12435528,0,0,0.12435528,902.78868,353.49871)"
         id="g5567-3-4">
        <path
           transform="matrix(0.31150424,0,0,0.31150424,-808.48292,1315.0634)"
           sodipodi:type="arc"
           style="fill:#266e9f;fill-opacity:1;fill-rule:evenodd;stroke:none"
           id="path2985-9-17-4-2-1-6-3-5-1"
           sodipodi:cx="333.35034"
           sodipodi:cy="478.59555"
           sodipodi:rx="67.680222"
           sodipodi:ry="67.680222"
           d="m 401.03056,478.59555 c 0,37.37875 -30.30146,67.68022 -67.68022,67.68022 -37.37875,0 -67.68022,-30.30147 -67.68022,-67.68022 0,-37.37875 30.30147,-67.68022 67.68022,-67.68022 37.37876,0 67.68022,30.30147 67.68022,67.68022 z"
           inkscape:export-filename="C:\Users\daninux\Iconos Boubeta\followed by 16x16 px.png"
           inkscape:export-xdpi="89.999832"
           inkscape:export-ydpi="89.999832" />
        <path
           transform="matrix(0.16549909,0,0,0.16549909,-759.81205,1384.9408)"
           sodipodi:type="arc"
           style="fill:#ffffff;fill-opacity:1;fill-rule:evenodd;stroke:none"
           id="path2985-9-17-4-0-4-1-1-2-99-4"
           sodipodi:cx="333.35034"
           sodipodi:cy="478.59555"
           sodipodi:rx="67.680222"
           sodipodi:ry="67.680222"
           d="m 401.03056,478.59555 c 0,37.37875 -30.30146,67.68022 -67.68022,67.68022 -37.37875,0 -67.68022,-30.30147 -67.68022,-67.68022 0,-37.37875 30.30147,-67.68022 67.68022,-67.68022 37.37876,0 67.68022,30.30147 67.68022,67.68022 z"
           inkscape:export-filename="C:\Users\daninux\Iconos Boubeta\followed by 16x16 px.png"
           inkscape:export-xdpi="89.999832"
           inkscape:export-ydpi="89.999832" />
      </g>
      <rect
         y="537.78137"
         x="822.89722"
         height="14.126376"
         width="7.76406"
         id="rect3356-7-6-8"
         style="fill:#f9f9f9;fill-opacity:1;stroke:#000000;stroke-width:1.20000005;stroke-linejoin:round;stroke-miterlimit:4;stroke-opacity:1;stroke-dasharray:none;stroke-dashoffset:0" />
      <g
         transform="matrix(0.12435528,0,0,0.12435528,914.40533,359.86963)"
         id="g5567-63-6-0">
        <path
           transform="matrix(0.31150424,0,0,0.31150424,-808.48292,1315.0634)"
           sodipodi:type="arc"
           style="fill:#266e9f;fill-opacity:1;fill-rule:evenodd;stroke:none"
           id="path2985-9-17-4-2-1-6-3-6-0-8"
           sodipodi:cx="333.35034"
           sodipodi:cy="478.59555"
           sodipodi:rx="67.680222"
           sodipodi:ry="67.680222"
           d="m 401.03056,478.59555 c 0,37.37875 -30.30146,67.68022 -67.68022,67.68022 -37.37875,0 -67.68022,-30.30147 -67.68022,-67.68022 0,-37.37875 30.30147,-67.68022 67.68022,-67.68022 37.37876,0 67.68022,30.30147 67.68022,67.68022 z"
           inkscape:export-filename="C:\Users\daninux\Iconos Boubeta\followed by 16x16 px.png"
           inkscape:export-xdpi="89.999832"
           inkscape:export-ydpi="89.999832" />
        <path
           transform="matrix(0.16549909,0,0,0.16549909,-759.81205,1384.9408)"
           sodipodi:type="arc"
           style="fill:#ffffff;fill-opacity:1;fill-rule:evenodd;stroke:none"
           id="path2985-9-17-4-0-4-1-1-2-1-3-7"
           sodipodi:cx="333.35034"
           sodipodi:cy="478.59555"
           sodipodi:rx="67.680222"
           sodipodi:ry="67.680222"
           d="m 401.03056,478.59555 c 0,37.37875 -30.30146,67.68022 -67.68022,67.68022 -37.37875,0 -67.68022,-30.30147 -67.68022,-67.68022 0,-37.37875 30.30147,-67.68022 67.68022,-67.68022 37.37876,0 67.68022,30.30147 67.68022,67.68022 z"
           inkscape:export-filename="C:\Users\daninux\Iconos Boubeta\followed by 16x16 px.png"
           inkscape:export-xdpi="89.999832"
           inkscape:export-ydpi="89.999832" />
      </g>
      <g
         transform="matrix(0.12435528,0,0,0.12435528,914.40533,366.08221)"
         id="g5567-6-5-8-7">
        <path
           transform="matrix(0.31150424,0,0,0.31150424,-808.48292,1315.0634)"
           sodipodi:type="arc"
           style="fill:#266e9f;fill-opacity:1;fill-rule:evenodd;stroke:none"
           id="path2985-9-17-4-2-1-6-3-8-4-0-8"
           sodipodi:cx="333.35034"
           sodipodi:cy="478.59555"
           sodipodi:rx="67.680222"
           sodipodi:ry="67.680222"
           d="m 401.03056,478.59555 c 0,37.37875 -30.30146,67.68022 -67.68022,67.68022 -37.37875,0 -67.68022,-30.30147 -67.68022,-67.68022 0,-37.37875 30.30147,-67.68022 67.68022,-67.68022 37.37876,0 67.68022,30.30147 67.68022,67.68022 z"
           inkscape:export-filename="C:\Users\daninux\Iconos Boubeta\followed by 16x16 px.png"
           inkscape:export-xdpi="89.999832"
           inkscape:export-ydpi="89.999832" />
        <path
           transform="matrix(0.16549909,0,0,0.16549909,-759.81205,1384.9408)"
           sodipodi:type="arc"
           style="fill:#ffffff;fill-opacity:1;fill-rule:evenodd;stroke:none"
           id="path2985-9-17-4-0-4-1-1-2-5-2-1-3"
           sodipodi:cx="333.35034"
           sodipodi:cy="478.59555"
           sodipodi:rx="67.680222"
           sodipodi:ry="67.680222"
           d="m 401.03056,478.59555 c 0,37.37875 -30.30146,67.68022 -67.68022,67.68022 -37.37875,0 -67.68022,-30.30147 -67.68022,-67.68022 0,-37.37875 30.30147,-67.68022 67.68022,-67.68022 37.37876,0 67.68022,30.30147 67.68022,67.68022 z"
           inkscape:export-filename="C:\Users\daninux\Iconos Boubeta\followed by 16x16 px.png"
           inkscape:export-xdpi="89.999832"
           inkscape:export-ydpi="89.999832" />
      </g>
      <g
         transform="translate(-21.233697,24.594363)"
         id="g3038">
        <path
           d="m 835.81365,514.17174 c -0.0972,0 -0.17815,0.0323 -0.24295,0.0971 -0.0648,0.0648 -0.0971,0.14573 -0.0971,0.24294 0,0.0972 0.0323,0.17864 0.0971,0.24347 0.0648,0.0648 0.14575,0.0971 0.24295,0.0971 l 0.0488,0 0,0.57232 1.16647,0 0,-0.57232 0.0488,0 c 0.0972,0 0.17817,-0.0323 0.24295,-0.0971 0.0648,-0.0648 0.0971,-0.14577 0.0971,-0.24295 0,-0.0972 -0.0322,-0.17868 -0.0971,-0.24346 -0.0648,-0.0648 -0.14577,-0.0971 -0.24295,-0.0971 l -1.26407,0 z"
           id="path3-1-6-2-8"
           inkscape:connector-curvature="0" />
        <path
           inkscape:connector-curvature="0"
           d="m 838.5713,516.57351 c -0.12156,-0.28157 -0.28619,-0.52622 -0.49391,-0.73393 -0.20771,-0.20774 -0.45235,-0.37236 -0.73392,-0.49391 -0.28157,-0.12155 -0.58083,-0.18234 -0.89779,-0.18234 -0.21233,0 -0.41697,0.0277 -0.61391,0.0831 -0.19695,0.0554 -0.38081,0.1331 -0.5516,0.2331 -0.17078,0.10002 -0.32619,0.22004 -0.4662,0.36004 -0.14002,0.14001 -0.26003,0.29543 -0.36004,0.4662 -0.10001,0.1708 -0.17771,0.35465 -0.2331,0.55159 -0.0554,0.19696 -0.0831,0.4016 -0.0831,0.61391 0,0.21233 0.0277,0.41696 0.0831,0.61393 0.0554,0.19692 0.13309,0.3808 0.2331,0.55161 0.10001,0.17077 0.22002,0.32619 0.36004,0.46618 0.14001,0.14001 0.29542,0.26003 0.4662,0.36004 0.17079,0.10002 0.35465,0.1777 0.5516,0.23312 0.19694,0.0554 0.40158,0.0831 0.61391,0.0831 0.21233,0 0.41697,-0.0277 0.61391,-0.0831 0.19695,-0.0554 0.38081,-0.1331 0.55161,-0.23312 0.17079,-0.10001 0.32619,-0.22003 0.4662,-0.36004 0.14002,-0.13999 0.26004,-0.29541 0.36004,-0.46618 0.10001,-0.17081 0.1777,-0.35469 0.2331,-0.55161 0.0554,-0.19697 0.0831,-0.4016 0.0831,-0.61393 0,-0.31692 -0.0608,-0.6162 -0.18232,-0.89777 z m -0.59315,0.0577 -1.46785,1.46785 c -0.0154,0.009 -0.0308,0.0139 -0.0462,0.0139 v 0.005 c -0.0123,0 -0.0277,-0.006 -0.0462,-0.0184 l -1.00165,-1.00627 c -0.0123,-0.009 -0.0185,-0.0231 -0.0185,-0.0415 0,-0.0155 0.006,-0.0292 0.0185,-0.0416 l 0.32311,-0.32312 c 0.0277,-0.0277 0.0554,-0.0277 0.0831,0 l 0.64161,0.6416 1.10781,-1.10778 c 0.0123,-0.0123 0.0262,-0.0184 0.0415,-0.0184 0.0154,0 0.0292,0.006 0.0415,0.0184 l 0.32311,0.3231 c 0.0277,0.0277 0.0277,0.0569 0,0.0877 z"
           id="path3-7-6-3" />
      </g>
    </g>
  </g>
</svg>
