<?xml version="1.0" encoding="UTF-8" standalone="no"?>
<!-- Created with Inkscape (http://www.inkscape.org/) -->

<svg
   xmlns:dc="http://purl.org/dc/elements/1.1/"
   xmlns:cc="http://creativecommons.org/ns#"
   xmlns:rdf="http://www.w3.org/1999/02/22-rdf-syntax-ns#"
   xmlns:svg="http://www.w3.org/2000/svg"
   xmlns="http://www.w3.org/2000/svg"
   xmlns:sodipodi="http://sodipodi.sourceforge.net/DTD/sodipodi-0.dtd"
   xmlns:inkscape="http://www.inkscape.org/namespaces/inkscape"
   width="30"
   height="30"
   id="svg3316"
   version="1.1"
   inkscape:version="0.48.4 r9939"
   sodipodi:docname="SUM.svg">
  <defs
     id="defs3318" />
  <sodipodi:namedview
     id="base"
     pagecolor="#ffffff"
     bordercolor="#666666"
     borderopacity="1.0"
     inkscape:pageopacity="0.0"
     inkscape:pageshadow="2"
     inkscape:zoom="0.7"
     inkscape:cx="-23.306036"
     inkscape:cy="-7.1203596"
     inkscape:document-units="px"
     inkscape:current-layer="layer1"
     showgrid="false"
     fit-margin-top="0"
     fit-margin-left="0"
     fit-margin-right="0"
     fit-margin-bottom="0"
     inkscape:window-width="942"
     inkscape:window-height="985"
     inkscape:window-x="960"
     inkscape:window-y="0"
     inkscape:window-maximized="0" />
  <metadata
     id="metadata3321">
    <rdf:RDF>
      <cc:Work
         rdf:about="">
        <dc:format>image/svg+xml</dc:format>
        <dc:type
           rdf:resource="http://purl.org/dc/dcmitype/StillImage" />
        <dc:title />
      </cc:Work>
    </rdf:RDF>
  </metadata>
  <g
     inkscape:label="Layer 1"
     inkscape:groupmode="layer"
     id="layer1"
     transform="translate(-788.54894,-495.24182)">
    <path
       transform="matrix(0.22163048,0,0,0.22163048,729.66834,404.17046)"
       sodipodi:type="arc"
       style="fill:#a846bd;fill-opacity:1;fill-rule:evenodd;stroke:none"
       id="path2985-9-5-1-1-9-5"
       sodipodi:cx="333.35034"
       sodipodi:cy="478.59555"
       sodipodi:rx="67.680222"
       sodipodi:ry="67.680222"
       d="m 401.03056,478.59555 c 0,37.37875 -30.30146,67.68022 -67.68022,67.68022 -37.37875,0 -67.68022,-30.30147 -67.68022,-67.68022 0,-37.37875 30.30147,-67.68022 67.68022,-67.68022 37.37876,0 67.68022,30.30147 67.68022,67.68022 z"
       inkscape:export-filename="C:\Users\daninux\Iconos Boubeta\followed by 16x16 px.png"
       inkscape:export-xdpi="89.999832"
       inkscape:export-ydpi="89.999832" />
    <g
       id="g6603"
       transform="matrix(0.16933334,0,0,0.16933334,714.77269,286.54184)">
      <path
         style="fill:#ffffff"
         id="path3-4"
         d="m 556.33925,1290.7406 v -8.7145 h -56.64523 l 33.33204,35.8497 c 2.08752,2.247 2.05842,5.7388 -0.0671,7.9491 l -32.95502,34.2746 h 56.33401 v -5.2619 c 0,-3.1894 2.59485,-5.7843 5.78433,-5.7843 3.18948,0 5.7856,2.5949 5.7856,5.7843 v 11.0462 c 0,3.1895 -2.59485,5.7856 -5.7856,5.7856 h -75.70621 c -2.32158,0 -4.41163,-1.3803 -5.32255,-3.5184 -0.91092,-2.1382 -0.45799,-4.6014 1.1513,-6.2765 l 38.58374,-40.126 -38.64953,-41.5682 c -1.56627,-1.6865 -1.98504,-4.1384 -1.06653,-6.25 0.91977,-2.1103 3.00224,-3.4741 5.30357,-3.4741 h 75.70748 c 3.18948,0 5.7856,2.5949 5.7856,5.7856 v 14.4988 c 0,3.1895 -2.59486,5.7856 -5.7856,5.7856 -3.18948,0 -5.78434,-2.5949 -5.78434,-5.7856 z"
         inkscape:connector-curvature="0" />
    </g>
  </g>
</svg>
