<?xml version="1.0" encoding="UTF-8" standalone="no"?>
<!-- Generator: Adobe Illustrator 22.1.0, SVG Export Plug-In . SVG Version: 6.00 Build 0)  -->

<svg
   xmlns:dc="http://purl.org/dc/elements/1.1/"
   xmlns:cc="http://creativecommons.org/ns#"
   xmlns:rdf="http://www.w3.org/1999/02/22-rdf-syntax-ns#"
   xmlns:svg="http://www.w3.org/2000/svg"
   xmlns="http://www.w3.org/2000/svg"
   xmlns:sodipodi="http://sodipodi.sourceforge.net/DTD/sodipodi-0.dtd"
   xmlns:inkscape="http://www.inkscape.org/namespaces/inkscape"
   version="1.1"
   id="Layer_1"
   x="0px"
   y="0px"
   viewBox="0 0 20 20"
   xml:space="preserve"
   width="20"
   height="20"
   sodipodi:docname="InMemoryInput.svg"
   inkscape:version="0.92.4 (5da689c313, 2019-01-14)"><metadata
   id="metadata72"><rdf:RDF><cc:Work
       rdf:about=""><dc:format>image/svg+xml</dc:format><dc:type
         rdf:resource="http://purl.org/dc/dcmitype/StillImage" /><dc:title></dc:title></cc:Work></rdf:RDF></metadata><defs
   id="defs70" /><sodipodi:namedview
   pagecolor="#ffffff"
   bordercolor="#666666"
   borderopacity="1"
   objecttolerance="10"
   gridtolerance="10"
   guidetolerance="10"
   inkscape:pageopacity="0"
   inkscape:pageshadow="2"
   inkscape:window-width="1920"
   inkscape:window-height="1001"
   id="namedview68"
   showgrid="false"
   inkscape:zoom="4.9166667"
   inkscape:cx="24"
   inkscape:cy="24"
   inkscape:window-x="-9"
   inkscape:window-y="-9"
   inkscape:window-maximized="1"
   inkscape:current-layer="Layer_1" />
<g
   id="g59"
   transform="translate(0,-28)">
</g>


<g
   id="g77"
   transform="matrix(0.55555556,0,0,0.55555556,-3.2316384,-3.2316377)"><path
     id="path61"
     d="M 36,42 H 12 C 8.691,42 6,39.309 6,36 V 6 h 4 v 30 c 0,1.103 0.897,2 2,2 h 24 c 1.103,0 2,-0.897 2,-2 v -2 h 4 v 2 c 0,3.309 -2.691,6 -6,6 z"
     style="fill:#607d8b"
     inkscape:connector-curvature="0" /><polygon
     id="polygon63"
     points="33,20 33,6 42,13 "
     style="fill:#2196f3" /><path
     id="path65"
     d="m 20,32 h -4 v -9 c 0,-6.617 5.383,-12 12,-12 h 7 v 4 h -7 c -4.411,0 -8,3.589 -8,8 z"
     style="fill:#2196f3"
     inkscape:connector-curvature="0" /></g>
</svg>