<?xml version="1.0" encoding="UTF-8" standalone="no"?>
<svg
   xmlns:dc="http://purl.org/dc/elements/1.1/"
   xmlns:cc="http://creativecommons.org/ns#"
   xmlns:rdf="http://www.w3.org/1999/02/22-rdf-syntax-ns#"
   xmlns:svg="http://www.w3.org/2000/svg"
   xmlns="http://www.w3.org/2000/svg"
   xmlns:sodipodi="http://sodipodi.sourceforge.net/DTD/sodipodi-0.dtd"
   xmlns:inkscape="http://www.inkscape.org/namespaces/inkscape"
   viewBox="0 0 20 20"
   version="1.1"
   width="20"
   height="20"
   id="svg36"
   sodipodi:docname="InMemoryOutput.svg"
   inkscape:version="0.92.4 (5da689c313, 2019-01-14)">
  <metadata
     id="metadata42">
    <rdf:RDF>
      <cc:Work
         rdf:about="">
        <dc:format>image/svg+xml</dc:format>
        <dc:type
           rdf:resource="http://purl.org/dc/dcmitype/StillImage" />
        <dc:title></dc:title>
      </cc:Work>
    </rdf:RDF>
  </metadata>
  <defs
     id="defs40" />
  <sodipodi:namedview
     pagecolor="#ffffff"
     bordercolor="#666666"
     borderopacity="1"
     objecttolerance="10"
     gridtolerance="10"
     guidetolerance="10"
     inkscape:pageopacity="0"
     inkscape:pageshadow="2"
     inkscape:window-width="1920"
     inkscape:window-height="1001"
     id="namedview38"
     showgrid="false"
     inkscape:zoom="16.833333"
     inkscape:cx="24"
     inkscape:cy="24"
     inkscape:window-x="-9"
     inkscape:window-y="-9"
     inkscape:window-maximized="1"
     inkscape:current-layer="svg36" />
  <g
     id="surface1"
     transform="matrix(0.5,0,0,0.58823529,-1.9801981,-4.1671518)">
    <path
       style="fill:#1976d2"
       d="M 38.101563,31.199219 19.398438,24 38.101563,16.800781 c 1.5,-0.601562 2.296875,-2.300781 1.699218,-3.902343 -0.601562,-1.5 -2.300781,-2.296875 -3.902343,-1.699219 l -26,10 C 8.800781,21.601563 8,22.800781 8,24 c 0,1.199219 0.800781,2.398438 1.898438,2.800781 l 26,10 C 36.300781,36.898438 36.601563,37 37,37 38.199219,37 39.300781,36.300781 39.800781,35.101563 40.398438,33.5 39.601563,31.800781 38.101563,31.199219 Z"
       id="path27"
       inkscape:connector-curvature="0" />
    <path
       style="fill:#1e88e5"
       d="m 18,24 c 0,3.867188 -3.132812,7 -7,7 -3.867187,0 -7,-3.132812 -7,-7 0,-3.867187 3.132813,-7 7,-7 3.867188,0 7,3.132813 7,7 z"
       id="path29"
       inkscape:connector-curvature="0" />
    <path
       style="fill:#1e88e5"
       d="m 44,14 c 0,3.867188 -3.132812,7 -7,7 -3.867187,0 -7,-3.132812 -7,-7 0,-3.867187 3.132813,-7 7,-7 3.867188,0 7,3.132813 7,7 z"
       id="path31"
       inkscape:connector-curvature="0" />
    <path
       style="fill:#1e88e5"
       d="m 44,34 c 0,3.867188 -3.132812,7 -7,7 -3.867187,0 -7,-3.132812 -7,-7 0,-3.867187 3.132813,-7 7,-7 3.867188,0 7,3.132813 7,7 z"
       id="path33"
       inkscape:connector-curvature="0" />
  </g>
</svg>
