<?xml version="1.0" encoding="UTF-8" standalone="no"?>
<!-- Generator: Adobe Illustrator 21.0.2, SVG Export Plug-In . SVG Version: 6.00 Build 0)  -->

<svg
   xmlns:dc="http://purl.org/dc/elements/1.1/"
   xmlns:cc="http://creativecommons.org/ns#"
   xmlns:rdf="http://www.w3.org/1999/02/22-rdf-syntax-ns#"
   xmlns:svg="http://www.w3.org/2000/svg"
   xmlns="http://www.w3.org/2000/svg"
   xmlns:sodipodi="http://sodipodi.sourceforge.net/DTD/sodipodi-0.dtd"
   xmlns:inkscape="http://www.inkscape.org/namespaces/inkscape"
   version="1.1"
   id="Layer_1"
   x="0px"
   y="0px"
   viewBox="0 0 20 20"
   xml:space="preserve"
   width="20"
   height="20"
   sodipodi:docname="MongoDB.svg"
   inkscape:version="0.92.4 (5da689c313, 2019-01-14)"><metadata
   id="metadata42"><rdf:RDF><cc:Work
       rdf:about=""><dc:format>image/svg+xml</dc:format><dc:type
         rdf:resource="http://purl.org/dc/dcmitype/StillImage" /><dc:title></dc:title></cc:Work></rdf:RDF></metadata><defs
   id="defs40" /><sodipodi:namedview
   pagecolor="#ffffff"
   bordercolor="#666666"
   borderopacity="1"
   objecttolerance="10"
   gridtolerance="10"
   guidetolerance="10"
   inkscape:pageopacity="0"
   inkscape:pageshadow="2"
   inkscape:window-width="1920"
   inkscape:window-height="1001"
   id="namedview38"
   showgrid="false"
   inkscape:zoom="16.833333"
   inkscape:cx="24"
   inkscape:cy="24"
   inkscape:window-x="-9"
   inkscape:window-y="-9"
   inkscape:window-maximized="1"
   inkscape:current-layer="Layer_1" />

<g
   id="g48"
   transform="matrix(0.55555556,0,0,0.5,-3.3927385,-1.9603964)"><path
     id="path27"
     d="M 42,17.3 C 42,37.8 24,44 24,44 24,44 6,37.8 6,17.3 6,14.8 6.2,12.7 6.4,11 6.7,8.5 8.4,6.5 10.8,5.9 13.9,5 18.8,4 24,4 c 5.2,0 10.1,1 13.3,1.9 2.4,0.6 4.1,2.7 4.4,5.1 0.1,1.7 0.3,3.9 0.3,6.3 z"
     style="fill:#5d4037"
     inkscape:connector-curvature="0" /><rect
     id="rect31"
     height="8"
     width="2"
     style="fill:#dcedc8"
     y="28"
     x="23" /><path
     id="path33"
     d="m 24,10 c 0,0 -6,5 -6,13 0,5.2 3.3,8.5 5,10 l 1,-3 1,3 c 1.7,-1.5 5,-4.8 5,-10 0,-8 -6,-13 -6,-13 z"
     style="fill:#4caf50"
     inkscape:connector-curvature="0" /><path
     id="path35"
     d="m 24,10 c 0,0 -6,5 -6,13 0,5.2 3.3,8.5 5,10 l 1,-3 z"
     style="fill:#81c784"
     inkscape:connector-curvature="0" /></g><g
   id="g51"
   transform="matrix(0.55555556,0,0,0.5,-3.3927385,-1.9603964)"><path
     id="path29"
     d="m 24,7 c 4.9,0 9.5,1 12.5,1.8 1.2,0.3 2,1.3 2.2,2.6 0.2,1.9 0.3,3.9 0.3,5.9 C 39,32.9 27.5,39.2 24,40.7 20.5,39.1 9,32.8 9,17.3 c 0,-2 0.1,-4 0.3,-5.9 0.1,-1.3 1,-2.3 2.2,-2.6 C 14.5,8 19.1,7 24,7 M 24,4 C 18.8,4 13.9,5 10.7,5.9 8.4,6.5 6.6,8.6 6.4,11 6.2,12.7 6,14.9 6,17.3 6,37.8 24,44 24,44 24,44 42,37.8 42,17.3 42,14.8 41.8,12.7 41.6,11 41.3,8.5 39.6,6.5 37.2,5.9 34.1,5 29.2,4 24,4 Z"
     style="fill:#4caf50"
     inkscape:connector-curvature="0" /></g>



</svg>