<?xml version="1.0" encoding="UTF-8" standalone="no"?>
<svg
   xmlns:dc="http://purl.org/dc/elements/1.1/"
   xmlns:cc="http://creativecommons.org/ns#"
   xmlns:rdf="http://www.w3.org/1999/02/22-rdf-syntax-ns#"
   xmlns:svg="http://www.w3.org/2000/svg"
   xmlns="http://www.w3.org/2000/svg"
   xmlns:sodipodi="http://sodipodi.sourceforge.net/DTD/sodipodi-0.dtd"
   xmlns:inkscape="http://www.inkscape.org/namespaces/inkscape"
   viewBox="0 0 20 20"
   version="1.1"
   width="20"
   height="20"
   id="svg113"
   sodipodi:docname="SourceHttp.svg"
   inkscape:version="0.92.4 (5da689c313, 2019-01-14)">
  <metadata
     id="metadata119">
    <rdf:RDF>
      <cc:Work
         rdf:about="">
        <dc:format>image/svg+xml</dc:format>
        <dc:type
           rdf:resource="http://purl.org/dc/dcmitype/StillImage" />
        <dc:title></dc:title>
      </cc:Work>
    </rdf:RDF>
  </metadata>
  <defs
     id="defs117" />
  <sodipodi:namedview
     pagecolor="#ffffff"
     bordercolor="#666666"
     borderopacity="1"
     objecttolerance="10"
     gridtolerance="10"
     guidetolerance="10"
     inkscape:pageopacity="0"
     inkscape:pageshadow="2"
     inkscape:window-width="1920"
     inkscape:window-height="1001"
     id="namedview115"
     showgrid="false"
     inkscape:zoom="4.9166667"
     inkscape:cx="24"
     inkscape:cy="24"
     inkscape:window-x="-9"
     inkscape:window-y="-9"
     inkscape:window-maximized="1"
     inkscape:current-layer="svg113" />
  <g
     id="surface1"
     transform="matrix(0.45454545,0,0,0.71428571,-0.73959937,-6.44552)">
    <path
       style="fill:#b3e5fc"
       d="M 22,27 C 22,32.523438 17.523438,37 12,37 6.476563,37 2,32.523438 2,27 2,21.476563 6.476563,17 12,17 c 5.523438,0 10,4.476563 10,10 z"
       id="path100"
       inkscape:connector-curvature="0" />
    <path
       style="fill:#b3e5fc"
       d="M 36,21 C 36,27.628906 30.628906,33 24,33 17.371094,33 12,27.628906 12,21 12,14.371094 17.371094,9 24,9 c 6.628906,0 12,5.371094 12,12 z"
       id="path102"
       inkscape:connector-curvature="0" />
    <path
       style="fill:#b3e5fc"
       d="M 46,28.5 C 46,33.195313 42.195313,37 37.5,37 32.804688,37 29,33.195313 29,28.5 29,23.804688 32.804688,20 37.5,20 c 4.695313,0 8.5,3.804688 8.5,8.5 z"
       id="path104"
       inkscape:connector-curvature="0" />
    <path
       style="fill:#b3e5fc"
       d="M 12,27 H 37 V 37 H 12 Z"
       id="path106"
       inkscape:connector-curvature="0" />
    <path
       style="fill:#3f51b5"
       d="m 22,18 h 4 v 10 h -4 z"
       id="path108"
       inkscape:connector-curvature="0" />
    <path
       style="fill:#3f51b5"
       d="m 24,33 6,-7 H 18 Z"
       id="path110"
       inkscape:connector-curvature="0" />
  </g>
</svg>
