<?xml version="1.0" encoding="UTF-8" standalone="no"?>
<svg
   xmlns:dc="http://purl.org/dc/elements/1.1/"
   xmlns:cc="http://creativecommons.org/ns#"
   xmlns:rdf="http://www.w3.org/1999/02/22-rdf-syntax-ns#"
   xmlns:svg="http://www.w3.org/2000/svg"
   xmlns="http://www.w3.org/2000/svg"
   xmlns:sodipodi="http://sodipodi.sourceforge.net/DTD/sodipodi-0.dtd"
   xmlns:inkscape="http://www.inkscape.org/namespaces/inkscape"
   viewBox="0 0 20 20"
   version="1.1"
   width="20"
   height="20"
   id="svg95"
   sodipodi:docname="Twitter.svg"
   inkscape:version="0.92.4 (5da689c313, 2019-01-14)">
  <metadata
     id="metadata101">
    <rdf:RDF>
      <cc:Work
         rdf:about="">
        <dc:format>image/svg+xml</dc:format>
        <dc:type
           rdf:resource="http://purl.org/dc/dcmitype/StillImage" />
        <dc:title></dc:title>
      </cc:Work>
    </rdf:RDF>
  </metadata>
  <defs
     id="defs99" />
  <sodipodi:namedview
     pagecolor="#ffffff"
     bordercolor="#666666"
     borderopacity="1"
     objecttolerance="10"
     gridtolerance="10"
     guidetolerance="10"
     inkscape:pageopacity="0"
     inkscape:pageshadow="2"
     inkscape:window-width="1920"
     inkscape:window-height="1001"
     id="namedview97"
     showgrid="false"
     inkscape:zoom="4.9166667"
     inkscape:cx="24"
     inkscape:cy="24"
     inkscape:window-x="-9"
     inkscape:window-y="-9"
     inkscape:window-maximized="1"
     inkscape:current-layer="svg95" />
  <g
     id="surface1"
     transform="matrix(0.55549528,0,0,0.68965517,-3.0296232,-6.240795)">
    <path
       style="fill:#03a9f4"
       d="m 42,12.429688 c -1.324219,0.585937 -2.746094,0.976562 -4.246094,1.160156 1.523438,-0.90625 2.699219,-2.351563 3.25,-4.058594 -1.429687,0.839844 -3.011718,1.453125 -4.691406,1.777344 C 34.96875,9.882813 33.050781,9 30.925781,9 c -4.078125,0 -7.386718,3.277344 -7.386718,7.320313 0,0.570312 0.06641,1.128906 0.191406,1.667968 -6.136719,-0.304687 -11.582031,-3.222656 -15.222656,-7.652343 -0.640625,1.082031 -1,2.347656 -1,3.6875 0,2.539062 1.300781,4.777343 3.285156,6.09375 -1.210938,-0.03516 -2.351563,-0.375 -3.347656,-0.914063 0,0.02344 0,0.05469 0,0.08594 0,3.550781 2.546875,6.507812 5.921875,7.183593 -0.617188,0.167969 -1.269532,0.261719 -1.941407,0.261719 -0.476562,0 -0.941406,-0.05469 -1.390625,-0.136719 0.9375,2.902344 3.664063,5.023438 6.898438,5.085938 -2.53125,1.960937 -5.714844,3.136719 -9.175781,3.136719 -0.597657,0 -1.183594,-0.03516 -1.761719,-0.105469 C 9.269531,36.785156 13.152344,38 17.320313,38 30.90625,38 38.339844,26.84375 38.339844,17.164063 c 0,-0.316407 -0.01172,-0.632813 -0.02734,-0.941407 C 39.761719,15.195313 41.011719,13.90625 42,12.429688"
       id="path92"
       inkscape:connector-curvature="0" />
  </g>
</svg>
